<?xml version="1.0" standalone="no"?><!DOCTYPE svg PUBLIC "-//W3C//DTD SVG 1.1//EN" "http://www.w3.org/Graphics/SVG/1.1/DTD/svg11.dtd"><svg t="1621929143932" class="icon" viewBox="0 0 1024 1024" version="1.1" xmlns="http://www.w3.org/2000/svg" p-id="2927" xmlns:xlink="http://www.w3.org/1999/xlink" width="32" height="32"><defs><style type="text/css"></style></defs><path d="M951.872 595.28 564.08 983.072C551.952 995.2 532.288 995.2 520.144 983.072 517.728 980.64 516.144 977.76 514.688 974.848L328.064 788.208C316.176 776.336 316.176 757.072 328.064 745.2 339.936 733.328 359.2 733.328 371.072 745.2L542.576 916.704 907.936 551.344C920.064 539.216 939.744 539.216 951.872 551.344 964 563.472 964 583.152 951.872 595.28ZM617.296 671.056C599.808 676.928 580.48 668.608 574.112 652.448L498.736 480.176 203.344 480.176 127.968 652.448C121.6 668.608 102.272 676.928 84.784 671.056 67.312 665.168 58.304 647.312 64.656 631.168L318.112 51.904C323.248 38.88 336.816 31.104 351.04 31.6 365.264 31.104 378.832 38.88 383.968 51.904L637.424 631.168C643.776 647.312 634.768 665.168 617.296 671.056ZM351.04 142.624 231.344 416.176 470.736 416.176 351.04 142.624Z" p-id="2928" fill="#e6e6e6"></path></svg>