<?xml version="1.0" standalone="no"?><!DOCTYPE svg PUBLIC "-//W3C//DTD SVG 1.1//EN" "http://www.w3.org/Graphics/SVG/1.1/DTD/svg11.dtd"><svg t="1623914792298" class="icon" viewBox="0 0 1024 1024" version="1.1" xmlns="http://www.w3.org/2000/svg" p-id="4209" xmlns:xlink="http://www.w3.org/1999/xlink" width="32" height="32"><defs><style type="text/css"></style></defs><path d="M512 64a32 32 0 0 1 31.488 26.24l0.512 5.76 0.064 33.6a316.16 316.16 0 0 1 193.92 92.16A317.184 317.184 0 0 1 832 448v128c70.784 0 128 57.216 128 128 0 70.784-57.216 128-128 128l-163.2 0.064c-6.272 30.848-21.44 58.88-43.648 80.512A157.12 157.12 0 0 1 512 960a160.512 160.512 0 0 1-156.8-128H192c-70.784 0-128-57.216-128-128 0-70.784 57.216-128 128-128V448a319.616 319.616 0 0 1 288-318.4V96A32 32 0 0 1 512 64z m90.368 768H421.632l1.088 3.2a96.64 96.64 0 0 0 80.064 60.352L512 896c25.92 0 49.856-10.112 67.904-28.672 8.96-8.768 16-19.072 20.8-30.464L602.368 832zM832 640H192c-35.456 0-64 28.544-64 64s28.544 64 64 64h640c35.456 0 64-28.544 64-64s-28.544-64-64-64zM512 192C370.304 192 256 306.304 256 448v128h512V448a253.568 253.568 0 0 0-65.28-170.624l-9.984-10.432A253.184 253.184 0 0 0 512 192z" p-id="4210" fill="#e6e6e6"></path></svg>