<?xml version="1.0" standalone="no"?><!DOCTYPE svg PUBLIC "-//W3C//DTD SVG 1.1//EN" "http://www.w3.org/Graphics/SVG/1.1/DTD/svg11.dtd"><svg t="1622422376737" class="icon" viewBox="0 0 1024 1024" version="1.1" xmlns="http://www.w3.org/2000/svg" p-id="1972" xmlns:xlink="http://www.w3.org/1999/xlink" width="32" height="32"><defs><style type="text/css"></style></defs><path d="M 480.708 907.329 l 60.5327 -31.2702 l -42.855 -198.883 l 13.9804 -24.5808 l -1.06322 -25.0997 c -26.6868 -1.54622 -34.5202 -1.54622 -61.206 0 l -1.06526 25.0997 l 13.963 24.5808 l -42.855 198.883 L 480.708 907.329 Z" p-id="1973" fill="#e6e6e6"></path><path d="M 297.223 422 c 15.3557 55.5614 37.4018 97.256 64.9789 127.29 c 30.0525 32.7018 66.1956 51.2472 107.098 58.5966 l 3.67367 0.638543 l 3.67572 -0.793062 c 45.2905 -10.1717 81.4541 -29.6268 110.306 -61.9817 c 26.7277 -30.033 46.6679 -70.5866 61.3267 -124.677 c 12.4137 -7.65842 21.7176 -20.1694 28.0007 -36.7244 c 6.90527 -18.2363 10.0775 -41.7325 9.65182 -69.4845 l -0.153496 -10.9647 l -8.62647 -6.16849 c -1.0448 -0.793062 -2.05071 -1.47049 -3.07401 -2.1469 c 11.4283 -161.673 -10.0192 -254.77 -192.461 -228.799 c -61.9049 8.76155 -129.167 -10.5585 -167.534 19.3006 c -48.2131 48.3471 -51.634 120.868 -38.5612 205.978 c -2.88163 1.64343 -5.80317 3.51915 -8.68378 5.66707 l -8.606 6.16849 l -0.154519 10.9647 c -0.425695 28.3517 2.90107 52.2736 10.0959 70.5877 C 274.693 402.14 284.341 414.535 297.223 422 Z M 324.26 334.009 c 0.596588 -1.91461 1.17885 -4.13927 1.81535 -6.61363 l 0.271176 0.077771 l 0.812505 -4.5445 c 2.93894 -12.339 6.2084 -28.5635 9.16678 -40.9793 c 1.14201 -3.67469 2.39863 -7.23273 3.79237 -10.714 c 42.4457 34.3462 118.623 38.2532 183.777 -23.1482 l -11.6237 33.6494 l 11.8161 2.47538 l 13.305 -22.6847 l -1.68129 15.8971 l 12.6276 1.73962 l 7.81294 -26.0298 c 15.4315 9.43693 32.5278 22.0267 47.7853 15.2196 c 5.06844 12.2418 8.99384 25.5857 11.546 39.9345 l 3.26742 18.4492 l 5.72642 -0.347924 l 2.68618 9.57303 c 6.74973 -0.889253 12.6675 -1.00591 18.4697 -1.10312 c -0.8913 13.4411 -3.01568 24.7538 -6.38134 33.7466 c -3.51915 9.18622 -8.31436 15.2391 -14.3897 17.4822 l -9.95677 3.732 l -2.72813 10.7908 c -13.1106 51.9256 -30.6716 89.5782 -54.1871 115.938 c -22.1628 24.8899 -50.318 40.2446 -85.7469 48.7923 c -31.175 -6.2657 -58.6365 -20.81 -81.4562 -45.621 c -24.501 -26.6878 -44.0349 -65.4425 -57.6295 -118.605 l -2.9021 -11.3515 l -10.5401 -3.46184 c -6.20635 -2.04968 -11.1172 -7.98691 -14.6773 -17.1342 c -3.55906 -9.05012 -5.76224 -20.6155 -6.65251 -34.4046 C 308.09 333.197 318.921 330.276 324.26 334.009 Z" p-id="1974" fill="#e6e6e6"></path><path d="M 804.208 730.746 l 96.8293 -243.746 l -23.36 -10.5012 l -65.7536 165.523 l -21.9816 53.2836 c -15.4069 -34.1539 -34.1917 -64.1296 -55.5031 -85.5433 l -6.55735 -6.5553 l -8.8383 0.290619 l -104.275 3.7893 l 0 45.6589 l 96.3842 -3.51813 c 25.0649 28.4653 46.1429 72.7315 60.7046 121.059 c 14.4839 47.8467 22.259 99.056 21.0996 142.22 L 156.3 912.706 c 1.73962 -37.7887 6.40078 -83.4486 17.4433 -128.121 c 12.2213 -49.5843 32.2966 -97.7012 65.0372 -131.175 l 87.3914 0.810459 l 0 -45.6006 l -95.5144 -0.890276 l -8.08412 -0.038886 l -6.22579 5.68549 c -43.7054 40.5147 -69.3106 99.5175 -84.2028 159.739 c -14.3488 58.4052 -18.6805 118.084 -19.493 162.044 l -0.463558 23.3211 l 21.9121 0 L 813.031 958.481 l 19.2811 0 l 2.10699 -20.46 c 5.37645 -52.9305 -3.13234 -120.017 -21.7176 -181.496 C 810.076 747.819 807.239 739.212 804.208 730.746 Z" p-id="1975" fill="#e6e6e6"></path></svg>