<?xml version="1.0" standalone="no"?><!DOCTYPE svg PUBLIC "-//W3C//DTD SVG 1.1//EN" "http://www.w3.org/Graphics/SVG/1.1/DTD/svg11.dtd"><svg t="1623825217169" class="icon" viewBox="0 0 1024 1024" version="1.1" xmlns="http://www.w3.org/2000/svg" p-id="8768" xmlns:xlink="http://www.w3.org/1999/xlink" width="32" height="32"><defs><style type="text/css"></style></defs><path d="M688 560c-124.8 0-224 99.2-224 224s99.2 224 224 224 224-99.2 224-224-99.2-224-224-224z m0 384c-89.6 0-160-70.4-160-160s70.4-160 160-160 160 70.4 160 160-70.4 160-160 160zM467.2 304c16 0 28.8-12.8 28.8-32s-12.8-32-28.8-32H284.8c-16 0-28.8 12.8-28.8 32s12.8 32 28.8 32h182.4zM288 496h368c19.2 0 32-12.8 32-32s-12.8-32-32-32H288c-19.2 0-32 12.8-32 32s12.8 32 32 32z" p-id="8769" fill="#e6e6e6"></path><path d="M432 912h-224c-19.2 0-32-12.8-32-32v-768c0-19.2 12.8-32 32-32h512c54.4 0 96 41.6 96 96v345.6c0 19.2 12.8 32 32 32s32-12.8 32-32V176c0-89.6-70.4-160-160-160h-512c-54.4 0-96 41.6-96 96v768c0 54.4 41.6 96 96 96h224c19.2 0 32-12.8 32-32s-16-32-32-32z" p-id="8770" fill="#e6e6e6"></path><path d="M768 768h-64v-32c0-19.2-12.8-32-32-32s-32 12.8-32 32v64c0 19.2 12.8 32 32 32h96c19.2 0 32-12.8 32-32s-12.8-32-32-32z" p-id="8771" fill="#e6e6e6"></path></svg>